<mxfile host="app.diagrams.net" agent="Mozilla/5.0 (X11; Linux x86_64) AppleWebKit/537.36 (KHTML, like Gecko) Chrome/121.0.0.0 Safari/537.36" version="24.7.7">
  <diagram name="Page-1" id="XuLws41ACszbUNh-4v6C">
    <mxGraphModel dx="1433" dy="819" grid="1" gridSize="10" guides="1" tooltips="1" connect="1" arrows="1" fold="1" page="1" pageScale="1" pageWidth="827" pageHeight="1169" math="0" shadow="0">
      <root>
        <mxCell id="0" />
        <mxCell id="1" parent="0" />
        <mxCell id="MMr2BfFcpOe8eZguHO5X-1" value="Define entity : USER" style="rounded=0;whiteSpace=wrap;html=1;" vertex="1" parent="1">
          <mxGeometry x="80" y="200" width="120" height="60" as="geometry" />
        </mxCell>
        <mxCell id="MMr2BfFcpOe8eZguHO5X-4" value="" style="edgeStyle=orthogonalEdgeStyle;rounded=0;orthogonalLoop=1;jettySize=auto;html=1;" edge="1" parent="1" source="MMr2BfFcpOe8eZguHO5X-2" target="MMr2BfFcpOe8eZguHO5X-3">
          <mxGeometry relative="1" as="geometry" />
        </mxCell>
        <mxCell id="MMr2BfFcpOe8eZguHO5X-13" value="" style="edgeStyle=orthogonalEdgeStyle;rounded=0;orthogonalLoop=1;jettySize=auto;html=1;" edge="1" parent="1" source="MMr2BfFcpOe8eZguHO5X-2" target="MMr2BfFcpOe8eZguHO5X-10">
          <mxGeometry relative="1" as="geometry" />
        </mxCell>
        <mxCell id="MMr2BfFcpOe8eZguHO5X-2" value="Define Interface: UserRepository" style="rounded=0;whiteSpace=wrap;html=1;" vertex="1" parent="1">
          <mxGeometry x="280" y="200" width="120" height="60" as="geometry" />
        </mxCell>
        <mxCell id="MMr2BfFcpOe8eZguHO5X-3" value="&lt;ul&gt;&lt;li style=&quot;text-align: left;&quot;&gt;Contract for what operations to be performaed on user.&lt;/li&gt;&lt;li style=&quot;text-align: left;&quot;&gt;Ensures data (access) layer is hidden behind this interface&lt;/li&gt;&lt;/ul&gt;" style="text;html=1;align=center;verticalAlign=middle;whiteSpace=wrap;rounded=0;" vertex="1" parent="1">
          <mxGeometry x="242.5" y="330" width="195" height="80" as="geometry" />
        </mxCell>
        <mxCell id="MMr2BfFcpOe8eZguHO5X-6" value="" style="edgeStyle=orthogonalEdgeStyle;rounded=0;orthogonalLoop=1;jettySize=auto;html=1;" edge="1" parent="1" source="MMr2BfFcpOe8eZguHO5X-5" target="MMr2BfFcpOe8eZguHO5X-2">
          <mxGeometry relative="1" as="geometry" />
        </mxCell>
        <mxCell id="MMr2BfFcpOe8eZguHO5X-17" value="" style="edgeStyle=orthogonalEdgeStyle;rounded=0;orthogonalLoop=1;jettySize=auto;html=1;" edge="1" parent="1" source="MMr2BfFcpOe8eZguHO5X-5" target="MMr2BfFcpOe8eZguHO5X-16">
          <mxGeometry relative="1" as="geometry" />
        </mxCell>
        <mxCell id="MMr2BfFcpOe8eZguHO5X-5" value="Service Layer&amp;nbsp;" style="rounded=0;whiteSpace=wrap;html=1;" vertex="1" parent="1">
          <mxGeometry x="520" y="80" width="120" height="60" as="geometry" />
        </mxCell>
        <mxCell id="MMr2BfFcpOe8eZguHO5X-7" value="Only knows UserRepository not how data is stored or retrived" style="text;html=1;align=center;verticalAlign=middle;whiteSpace=wrap;rounded=0;" vertex="1" parent="1">
          <mxGeometry x="330" y="90" width="190" height="10" as="geometry" />
        </mxCell>
        <mxCell id="MMr2BfFcpOe8eZguHO5X-12" value="" style="edgeStyle=orthogonalEdgeStyle;rounded=0;orthogonalLoop=1;jettySize=auto;html=1;" edge="1" parent="1" source="MMr2BfFcpOe8eZguHO5X-10" target="MMr2BfFcpOe8eZguHO5X-11">
          <mxGeometry relative="1" as="geometry" />
        </mxCell>
        <mxCell id="MMr2BfFcpOe8eZguHO5X-10" value="Implement the UserRepository" style="rounded=0;whiteSpace=wrap;html=1;" vertex="1" parent="1">
          <mxGeometry x="520" y="200" width="120" height="60" as="geometry" />
        </mxCell>
        <mxCell id="MMr2BfFcpOe8eZguHO5X-15" value="" style="edgeStyle=orthogonalEdgeStyle;rounded=0;orthogonalLoop=1;jettySize=auto;html=1;" edge="1" parent="1" source="MMr2BfFcpOe8eZguHO5X-11" target="MMr2BfFcpOe8eZguHO5X-14">
          <mxGeometry relative="1" as="geometry" />
        </mxCell>
        <mxCell id="MMr2BfFcpOe8eZguHO5X-11" value="A struct with the db connection and methods belonging to this struct implemetations of UserRepository" style="text;html=1;align=left;verticalAlign=middle;whiteSpace=wrap;rounded=0;" vertex="1" parent="1">
          <mxGeometry x="492.5" y="333.75" width="175" height="72.5" as="geometry" />
        </mxCell>
        <mxCell id="MMr2BfFcpOe8eZguHO5X-14" value="DATABASE" style="whiteSpace=wrap;html=1;" vertex="1" parent="1">
          <mxGeometry x="520" y="505" width="120" height="60" as="geometry" />
        </mxCell>
        <mxCell id="MMr2BfFcpOe8eZguHO5X-22" value="" style="edgeStyle=orthogonalEdgeStyle;rounded=0;orthogonalLoop=1;jettySize=auto;html=1;" edge="1" parent="1" source="MMr2BfFcpOe8eZguHO5X-16" target="MMr2BfFcpOe8eZguHO5X-21">
          <mxGeometry relative="1" as="geometry" />
        </mxCell>
        <mxCell id="MMr2BfFcpOe8eZguHO5X-16" value="CreateUserService struct with a variable repo of type UserRepository interface" style="whiteSpace=wrap;html=1;rounded=0;" vertex="1" parent="1">
          <mxGeometry x="720" y="75" width="140" height="70" as="geometry" />
        </mxCell>
        <mxCell id="MMr2BfFcpOe8eZguHO5X-19" value="" style="endArrow=none;dashed=1;html=1;rounded=0;entryX=-0.021;entryY=0.914;entryDx=0;entryDy=0;exitX=1;exitY=0;exitDx=0;exitDy=0;entryPerimeter=0;" edge="1" parent="1" source="MMr2BfFcpOe8eZguHO5X-2" target="MMr2BfFcpOe8eZguHO5X-16">
          <mxGeometry width="50" height="50" relative="1" as="geometry">
            <mxPoint x="390" y="330" as="sourcePoint" />
            <mxPoint x="440" y="280" as="targetPoint" />
          </mxGeometry>
        </mxCell>
        <mxCell id="MMr2BfFcpOe8eZguHO5X-20" value="&lt;font style=&quot;font-size: 18px;&quot;&gt;&lt;b&gt;Repository Pattern in GO&lt;/b&gt;&lt;/font&gt;" style="text;html=1;align=center;verticalAlign=middle;whiteSpace=wrap;rounded=0;" vertex="1" parent="1">
          <mxGeometry x="80" y="20" width="230" height="30" as="geometry" />
        </mxCell>
        <mxCell id="MMr2BfFcpOe8eZguHO5X-21" value="Methods belonging to this struct where actual business logic is written" style="text;html=1;align=center;verticalAlign=middle;whiteSpace=wrap;rounded=0;" vertex="1" parent="1">
          <mxGeometry x="960" y="82.5" width="160" height="55" as="geometry" />
        </mxCell>
      </root>
    </mxGraphModel>
  </diagram>
</mxfile>
